<svg width="150" height="170" viewBox="0 0 150 170" fill="none" xmlns="http://www.w3.org/2000/svg">
<rect x="100" width="10" height="10" fill="#020202"/>
<rect x="90" width="10" height="10" fill="#020202"/>
<rect x="80" width="10" height="10" fill="#020202"/>
<rect x="70" width="10" height="10" fill="#020202"/>
<rect x="60" y="10" width="40" height="10" fill="#C9D2D9"/>
<rect x="40" y="30" width="40" height="10" fill="#C9D2D9"/>
<rect x="40" y="40" width="30" height="10" fill="#C9D2D9"/>
<rect x="10" y="50" width="20" height="10" fill="#C9D2D9"/>
<rect x="10" y="60" width="20" height="10" fill="#C9D2D9"/>
<rect x="10" y="70" width="20" height="10" fill="#C9D2D9"/>
<rect x="10" y="80" width="20" height="10" fill="#C9D2D9"/>
<rect x="20" y="90" width="10" height="10" fill="#C9D2D9"/>
<rect x="20" y="100" width="10" height="10" fill="#C9D2D9"/>
<rect x="40" y="50" width="30" height="10" fill="#C9D2D9"/>
<rect x="40" y="60" width="30" height="10" fill="#C9D2D9"/>
<rect x="50" y="70" width="30" height="10" fill="#C9D2D9"/>
<rect x="50" y="80" width="70" height="10" fill="#C9D2D9"/>
<rect x="50" y="90" width="70" height="10" fill="#C9D2D9"/>
<rect x="50" y="100" width="70" height="10" fill="#C9D2D9"/>
<rect x="60" y="110" width="50" height="10" fill="#C9D2D9"/>
<rect x="60" y="120" width="30" height="10" fill="#C9D2D9"/>
<rect x="50" y="20" width="60" height="10" fill="#C9D2D9"/>
<rect x="60" width="10" height="10" fill="#020202"/>
<rect x="50" width="10" height="10" fill="#020202"/>
<rect x="50" y="10" width="10" height="10" fill="#020202"/>
<rect x="40" y="10" width="10" height="10" fill="#020202"/>
<rect x="40" y="20" width="10" height="10" fill="#020202"/>
<rect x="30" y="20" width="10" height="10" fill="#020202"/>
<rect x="30" y="30" width="10" height="10" fill="#020202"/>
<rect x="30" y="40" width="10" height="10" fill="#020202"/>
<rect x="20" y="40" width="10" height="10" fill="#020202"/>
<rect x="10" y="40" width="10" height="10" fill="#020202"/>
<rect y="120" width="10" height="10" fill="#020202"/>
<rect x="10" y="130" width="10" height="10" fill="#020202"/>
<rect x="20" y="130" width="10" height="10" fill="#020202"/>
<rect x="30" y="130" width="10" height="10" fill="#020202"/>
<rect x="30" y="140" width="10" height="10" fill="#020202"/>
<rect x="30" y="150" width="10" height="10" fill="#020202"/>
<rect x="30" y="160" width="10" height="10" fill="#020202"/>
<rect x="40" y="160" width="10" height="10" fill="#020202"/>
<rect x="50" y="160" width="10" height="10" fill="#020202"/>
<rect x="60" y="160" width="10" height="10" fill="#020202"/>
<rect x="60" y="150" width="10" height="10" fill="#020202"/>
<rect x="60" y="140" width="10" height="10" fill="#020202"/>
<rect x="70" y="140" width="10" height="10" fill="#020202"/>
<rect x="80" y="140" width="10" height="10" fill="#020202"/>
<rect x="90" y="140" width="10" height="10" fill="#020202"/>
<rect x="90" y="150" width="10" height="10" fill="#020202"/>
<rect x="120" y="150" width="10" height="10" fill="#020202"/>
<rect x="120" y="140" width="10" height="10" fill="#020202"/>
<rect x="120" y="130" width="10" height="10" fill="#020202"/>
<rect x="120" y="120" width="10" height="10" fill="#020202"/>
<rect x="130" y="120" width="10" height="10" fill="#020202"/>
<rect x="130" y="110" width="10" height="10" fill="#020202"/>
<rect x="130" y="100" width="10" height="10" fill="#020202"/>
<rect x="130" y="90" width="10" height="10" fill="#020202"/>
<rect x="130" y="80" width="10" height="10" fill="#020202"/>
<rect x="130" y="70" width="10" height="10" fill="#020202"/>
<rect x="120" y="70" width="10" height="10" fill="#020202"/>
<rect x="110" y="70" width="10" height="10" fill="#020202"/>
<rect x="100" y="70" width="10" height="10" fill="#020202"/>
<rect x="90" y="70" width="10" height="10" fill="#020202"/>
<rect x="80" y="70" width="10" height="10" fill="#020202"/>
<rect x="70" y="60" width="10" height="10" fill="#020202"/>
<rect x="70" y="50" width="10" height="10" fill="#020202"/>
<rect x="70" y="40" width="10" height="10" fill="#020202"/>
<rect x="80" y="30" width="10" height="10" fill="#020202"/>
<rect x="130" y="40" width="10" height="20" fill="#5EE6DD"/>
<rect x="120" y="40" width="10" height="20" fill="#5EE6DD"/>
<rect x="90" y="40" width="10" height="20" fill="#5EE6DD"/>
<rect x="80" y="40" width="10" height="10" fill="#5EE6DD"/>
<rect x="80" y="50" width="10" height="10" fill="#7AFCA6"/>
<rect x="80" y="60" width="60" height="10" fill="#7AFCA6"/>
<rect x="100" y="50" width="10" height="10" fill="#5EE6DD"/>
<rect x="100" y="40" width="10" height="10" fill="#70FFEE"/>
<rect x="110" y="50" width="10" height="10" fill="#5EE6DD"/>
<rect x="110" y="40" width="10" height="10" fill="#70FFEE"/>
<rect x="90" y="30" width="10" height="10" fill="#020202"/>
<rect x="100" y="30" width="10" height="10" fill="#020202"/>
<rect x="110" y="30" width="10" height="10" fill="#020202"/>
<rect x="120" y="30" width="10" height="10" fill="#020202"/>
<rect x="120" y="20" width="10" height="10" fill="#020202"/>
<rect x="110" y="20" width="10" height="10" fill="#020202"/>
<rect x="110" y="10" width="10" height="10" fill="#020202"/>
<rect x="100" y="10" width="10" height="10" fill="#020202"/>
<rect x="130" y="30" width="10" height="10" fill="#020202"/>
<rect x="140" y="40" width="10" height="10" fill="#020202"/>
<rect x="140" y="50" width="10" height="10" fill="#020202"/>
<rect x="140" y="60" width="10" height="10" fill="#020202"/>
<path d="M90 160H100V170H90V160Z" fill="#020202"/>
<path d="M100 160H110V170H100V160Z" fill="#020202"/>
<path d="M110 160H120V170H110V160Z" fill="#020202"/>
<path d="M120 160H130V170H120V160Z" fill="#020202"/>
<rect x="30" y="120" width="10" height="10" fill="#020202"/>
<rect x="30" y="110" width="10" height="10" fill="#020202"/>
<rect x="30" y="100" width="10" height="10" fill="#020202"/>
<rect x="30" y="90" width="10" height="10" fill="#020202"/>
<rect x="30" y="80" width="10" height="10" fill="#020202"/>
<rect x="30" y="70" width="10" height="10" fill="#020202"/>
<rect x="40" y="70" width="10" height="90" fill="#566876"/>
<rect x="110" y="110" width="10" height="50" fill="#566876"/>
<rect x="120" y="80" width="10" height="40" fill="#566876"/>
<rect x="10" y="90" width="10" height="40" fill="#566876"/>
<rect x="20" y="110" width="10" height="20" fill="#566876"/>
<rect x="50" y="110" width="10" height="50" fill="#566876"/>
<rect x="60" y="130" width="10" height="10" fill="#566876"/>
<rect x="70" y="130" width="10" height="10" fill="#566876"/>
<rect x="80" y="130" width="10" height="10" fill="#566876"/>
<rect x="90" y="130" width="10" height="10" fill="#566876"/>
<rect x="90" y="120" width="10" height="10" fill="#566876"/>
<rect x="100" y="120" width="10" height="40" fill="#566876"/>
<rect x="30" y="60" width="10" height="10" fill="#020202"/>
<rect x="30" y="50" width="10" height="10" fill="#020202"/>
<rect y="50" width="10" height="10" fill="#020202"/>
<rect y="60" width="10" height="10" fill="#020202"/>
<rect y="70" width="10" height="10" fill="#020202"/>
<rect y="80" width="10" height="10" fill="#020202"/>
<rect y="90" width="10" height="10" fill="#020202"/>
<rect y="100" width="10" height="10" fill="#020202"/>
<rect y="110" width="10" height="10" fill="#020202"/>
</svg>
