<svg width="214" height="69" viewBox="0 0 214 69" fill="none" xmlns="http://www.w3.org/2000/svg">
<g filter="url(#filter0_di_14_1271)">
<path d="M0.844971 65V0H56.4506V9.28571H65.7182V27.8571H56.4506V37.1429H65.7182V55.7143H56.4506V65H0.844971ZM19.3802 27.8571H47.183V9.28571H19.3802V27.8571ZM19.3802 55.7143H47.183V37.1429H19.3802V55.7143Z" fill="#5EE5DD"/>
<path d="M84.2534 65V55.7143H74.9858V9.28571H84.2534V0H130.591V9.28571H139.859V55.7143H130.591V65H84.2534ZM93.521 55.7143H121.324V9.28571H93.521V55.7143Z" fill="#5EE5DD"/>
<path d="M176.929 65V9.28571H158.394V0H214V9.28571H195.465V65H176.929Z" fill="#5EE5DD"/>
</g>
<defs>
<filter id="filter0_di_14_1271" x="0.844971" y="0" width="213.155" height="69" filterUnits="userSpaceOnUse" color-interpolation-filters="sRGB">
<feFlood flood-opacity="0" result="BackgroundImageFix"/>
<feColorMatrix in="SourceAlpha" type="matrix" values="0 0 0 0 0 0 0 0 0 0 0 0 0 0 0 0 0 0 127 0" result="hardAlpha"/>
<feOffset dy="4"/>
<feComposite in2="hardAlpha" operator="out"/>
<feColorMatrix type="matrix" values="0 0 0 0 0 0 0 0 0 0 0 0 0 0 0 0 0 0 1 0"/>
<feBlend mode="normal" in2="BackgroundImageFix" result="effect1_dropShadow_14_1271"/>
<feBlend mode="normal" in="SourceGraphic" in2="effect1_dropShadow_14_1271" result="shape"/>
<feColorMatrix in="SourceAlpha" type="matrix" values="0 0 0 0 0 0 0 0 0 0 0 0 0 0 0 0 0 0 127 0" result="hardAlpha"/>
<feOffset dx="9" dy="4"/>
<feComposite in2="hardAlpha" operator="arithmetic" k2="-1" k3="1"/>
<feColorMatrix type="matrix" values="0 0 0 0 0.478431 0 0 0 0 0.988235 0 0 0 0 0.65098 0 0 0 1 0"/>
<feBlend mode="normal" in2="shape" result="effect2_innerShadow_14_1271"/>
</filter>
</defs>
</svg>
