<svg width="229" height="70" viewBox="0 0 229 70" fill="none" xmlns="http://www.w3.org/2000/svg">
<mask id="path-1-inside-1_9_745" fill="white">
<path fill-rule="evenodd" clip-rule="evenodd" d="M213 0H13V10H0V60H13V70H213V60H229V10H213V0Z"/>
</mask>
<path fill-rule="evenodd" clip-rule="evenodd" d="M213 0H13V10H0V60H13V70H213V60H229V10H213V0Z" fill="#5EE5DD"/>
<path d="M13 0V-5H8V0H13ZM213 0H218V-5H213V0ZM13 10V15H18V10H13ZM0 10V5H-5V10H0ZM0 60H-5V65H0V60ZM13 60H18V55H13V60ZM13 70H8V75H13V70ZM213 70V75H218V70H213ZM213 60V55H208V60H213ZM229 60V65H234V60H229ZM229 10H234V5H229V10ZM213 10H208V15H213V10ZM13 5H213V-5H13V5ZM18 10V0H8V10H18ZM0 15H13V5H0V15ZM5 60V10H-5V60H5ZM13 55H0V65H13V55ZM18 70V60H8V70H18ZM213 65H13V75H213V65ZM208 60V70H218V60H208ZM229 55H213V65H229V55ZM224 10V60H234V10H224ZM213 15H229V5H213V15ZM208 0V10H218V0H208Z" fill="black" mask="url(#path-1-inside-1_9_745)"/>
</svg>
