<svg width="362" height="69" viewBox="0 0 362 69" fill="none" xmlns="http://www.w3.org/2000/svg">
<g filter="url(#filter0_di_14_1270)">
<path d="M9.2676 65V55.7143H0V46.4286H18.5352V55.7143H46.338V37.1429H9.2676V27.8571H0V9.28571H9.2676V0H55.6056V9.28571H64.8732V18.5714H46.338V9.28571H18.5352V27.8571H55.6056V37.1429H64.8732V55.7143H55.6056V65H9.2676Z" fill="#5EE5DD"/>
<path d="M83.4084 65V55.7143H74.1408V0H92.676V55.7143H120.479V0H139.014V55.7143H129.746V65H83.4084Z" fill="#5EE5DD"/>
<path d="M157.549 65V55.7143H148.282V46.4286H166.817V55.7143H194.62V37.1429H157.549V27.8571H148.282V9.28571H157.549V0H203.887V9.28571H213.155V18.5714H194.62V9.28571H166.817V27.8571H203.887V37.1429H213.155V55.7143H203.887V65H157.549Z" fill="#5EE5DD"/>
<path d="M231.69 65V55.7143H222.423V46.4286H240.958V55.7143H268.761V37.1429H231.69V27.8571H222.423V9.28571H231.69V0H278.028V9.28571H287.296V18.5714H268.761V9.28571H240.958V27.8571H278.028V37.1429H287.296V55.7143H278.028V65H231.69Z" fill="#5EE5DD"/>
<path d="M324.366 65V37.1429H315.099V27.8571H305.831V0H324.366V27.8571H342.901V0H361.437V27.8571H352.169V37.1429H342.901V65H324.366Z" fill="#5EE5DD"/>
</g>
<defs>
<filter id="filter0_di_14_1270" x="0" y="0" width="361.437" height="69" filterUnits="userSpaceOnUse" color-interpolation-filters="sRGB">
<feFlood flood-opacity="0" result="BackgroundImageFix"/>
<feColorMatrix in="SourceAlpha" type="matrix" values="0 0 0 0 0 0 0 0 0 0 0 0 0 0 0 0 0 0 127 0" result="hardAlpha"/>
<feOffset dy="4"/>
<feComposite in2="hardAlpha" operator="out"/>
<feColorMatrix type="matrix" values="0 0 0 0 0 0 0 0 0 0 0 0 0 0 0 0 0 0 1 0"/>
<feBlend mode="normal" in2="BackgroundImageFix" result="effect1_dropShadow_14_1270"/>
<feBlend mode="normal" in="SourceGraphic" in2="effect1_dropShadow_14_1270" result="shape"/>
<feColorMatrix in="SourceAlpha" type="matrix" values="0 0 0 0 0 0 0 0 0 0 0 0 0 0 0 0 0 0 127 0" result="hardAlpha"/>
<feOffset dx="9" dy="4"/>
<feComposite in2="hardAlpha" operator="arithmetic" k2="-1" k3="1"/>
<feColorMatrix type="matrix" values="0 0 0 0 0.478431 0 0 0 0 0.988235 0 0 0 0 0.65098 0 0 0 1 0"/>
<feBlend mode="normal" in2="shape" result="effect2_innerShadow_14_1270"/>
</filter>
</defs>
</svg>
