<svg width="658" height="69" viewBox="0 0 658 69" fill="none" xmlns="http://www.w3.org/2000/svg">
<g filter="url(#filter0_di_2_731)">
<path d="M9.26761 65V55.7143H0V46.4286H18.5352V55.7143H46.338V37.1429H9.26761V27.8571H0V9.28571H9.26761V0H55.6056V9.28571H64.8732V18.5714H46.338V9.28571H18.5352V27.8571H55.6056V37.1429H64.8732V55.7143H55.6056V65H9.26761Z" fill="#5EE5DD"/>
<path d="M83.4084 65V55.7143H74.1408V0H92.6761V55.7143H120.479V0H139.014V55.7143H129.746V65H83.4084Z" fill="#5EE5DD"/>
<path d="M157.549 65V55.7143H148.282V46.4286H166.817V55.7143H194.62V37.1429H157.549V27.8571H148.282V9.28571H157.549V0H203.887V9.28571H213.155V18.5714H194.62V9.28571H166.817V27.8571H203.887V37.1429H213.155V55.7143H203.887V65H157.549Z" fill="#5EE5DD"/>
<path d="M231.69 65V55.7143H222.423V46.4286H240.958V55.7143H268.761V37.1429H231.69V27.8571H222.423V9.28571H231.69V0H278.028V9.28571H287.296V18.5714H268.761V9.28571H240.958V27.8571H278.028V37.1429H287.296V55.7143H278.028V65H231.69Z" fill="#5EE5DD"/>
<path d="M324.366 65V37.1429H315.099V27.8571H305.831V0H324.366V27.8571H342.901V0H361.437V27.8571H352.169V37.1429H342.901V65H324.366Z" fill="#5EE5DD"/>
<path d="M444.845 65V0H500.451V9.28571H509.718V27.8571H500.451V37.1429H509.718V55.7143H500.451V65H444.845ZM463.38 27.8571H491.183V9.28571H463.38V27.8571ZM463.38 55.7143H491.183V37.1429H463.38V55.7143Z" fill="#5EE5DD"/>
<path d="M528.253 65V55.7143H518.986V9.28571H528.253V0H574.592V9.28571H583.859V55.7143H574.592V65H528.253ZM537.521 55.7143H565.324V9.28571H537.521V55.7143Z" fill="#5EE5DD"/>
<path d="M620.93 65V9.28571H602.394V0H658V9.28571H639.465V65H620.93Z" fill="#5EE5DD"/>
</g>
<defs>
<filter id="filter0_di_2_731" x="0" y="0" width="658" height="69" filterUnits="userSpaceOnUse" color-interpolation-filters="sRGB">
<feFlood flood-opacity="0" result="BackgroundImageFix"/>
<feColorMatrix in="SourceAlpha" type="matrix" values="0 0 0 0 0 0 0 0 0 0 0 0 0 0 0 0 0 0 127 0" result="hardAlpha"/>
<feOffset dy="4"/>
<feComposite in2="hardAlpha" operator="out"/>
<feColorMatrix type="matrix" values="0 0 0 0 0 0 0 0 0 0 0 0 0 0 0 0 0 0 1 0"/>
<feBlend mode="normal" in2="BackgroundImageFix" result="effect1_dropShadow_2_731"/>
<feBlend mode="normal" in="SourceGraphic" in2="effect1_dropShadow_2_731" result="shape"/>
<feColorMatrix in="SourceAlpha" type="matrix" values="0 0 0 0 0 0 0 0 0 0 0 0 0 0 0 0 0 0 127 0" result="hardAlpha"/>
<feOffset dx="9" dy="4"/>
<feComposite in2="hardAlpha" operator="arithmetic" k2="-1" k3="1"/>
<feColorMatrix type="matrix" values="0 0 0 0 0.478431 0 0 0 0 0.988235 0 0 0 0 0.65098 0 0 0 1 0"/>
<feBlend mode="normal" in2="shape" result="effect2_innerShadow_2_731"/>
</filter>
</defs>
</svg>
